<svg width="1344" height="49" viewBox="0 0 1344 49" fill="none" xmlns="http://www.w3.org/2000/svg">
<g clip-path="url(#clip0_2264_59041)">
<rect width="24.8739" height="24.8739" transform="matrix(1 0 0 -1 0 49)" fill="#1436B4"/>
<rect width="24.8739" height="24.8739" transform="matrix(1 0 0 -1 24.8738 49)" fill="#A6A6A6"/>
<rect width="24.8739" height="24.8739" transform="matrix(1 0 0 -1 174.118 49)" fill="#E3D2BD"/>
<rect width="24.8739" height="24.8739" transform="matrix(1 0 0 -1 248.739 49)" fill="#A6A6A6"/>
<rect width="24.8739" height="24.8739" transform="matrix(1 0 0 -1 273.613 49)" fill="#A6A6A6"/>
<rect width="24.8739" height="24.8739" transform="matrix(1 0 0 -1 348.235 49)" fill="#1436B4"/>
<rect width="24.8739" height="24.8739" transform="matrix(1 0 0 -1 422.857 49)" fill="#E3D2BD"/>
<rect width="24.8739" height="24.8739" transform="matrix(1 0 0 -1 522.353 49)" fill="#A6A6A6"/>
<rect width="24.8739" height="24.8739" transform="matrix(1 0 0 -1 547.227 49)" fill="#E3D2BD"/>
<rect width="24.8739" height="24.8739" transform="matrix(1 0 0 -1 646.722 49)" fill="#86C1F4"/>
<rect width="24.8739" height="24.8739" transform="matrix(1 0 0 -1 746.218 49)" fill="#E3D2BD"/>
<rect width="24.8739" height="24.8739" transform="matrix(1 0 0 -1 795.966 49)" fill="#1436B4"/>
<rect width="24.8739" height="24.8739" transform="matrix(1 0 0 -1 945.21 49)" fill="#86C1F4"/>
<rect width="24.8739" height="24.8739" transform="matrix(1 0 0 -1 970.084 49)" fill="#A6A6A6"/>
<rect width="24.8739" height="24.8739" transform="matrix(1 0 0 -1 1044.71 49)" fill="#1436B4"/>
<rect width="24.8739" height="24.8739" transform="matrix(1 0 0 -1 1069.58 49)" fill="#A6A6A6"/>
<rect width="24.8739" height="24.8739" transform="matrix(1 0 0 -1 1169.08 49)" fill="#86C1F4"/>
<rect width="24.8739" height="24.8739" transform="matrix(1 0 0 -1 1218.82 49)" fill="#A6A6A6"/>
<rect width="24.8739" height="24.8739" transform="matrix(1 0 0 -1 1268.57 49)" fill="#1436B4"/>
<rect width="24.8739" height="24.8739" transform="matrix(1 0 0 -1 1293.45 49)" fill="#86C1F4"/>
<rect width="24.8739" height="24.8739" transform="matrix(1 0 0 -1 24.8738 24.1262)" fill="#E3D2BD"/>
<rect width="24.8739" height="24.8739" transform="matrix(1 0 0 -1 49.7477 24.1262)" fill="#A6A6A6"/>
<rect width="24.8739" height="24.8739" transform="matrix(1 0 0 -1 99.4957 24.1262)" fill="#1436B4"/>
<rect width="24.8739" height="24.8739" transform="matrix(1 0 0 -1 223.865 24.1262)" fill="#1436B4"/>
<rect width="24.8739" height="24.8739" transform="matrix(1 0 0 -1 273.613 24.1262)" fill="#E3D2BD"/>
<rect width="24.8739" height="24.8739" transform="matrix(1 0 0 -1 323.361 24.1262)" fill="#1436B4"/>
<rect width="24.8739" height="24.8739" transform="matrix(1 0 0 -1 447.731 24.1262)" fill="#1436B4"/>
<rect width="24.8739" height="24.8739" transform="matrix(1 0 0 -1 497.479 24.1262)" fill="#86C1F4"/>
<rect width="24.8739" height="24.8739" transform="matrix(1 0 0 -1 596.975 24.1262)" fill="#1436B4"/>
<rect width="24.8739" height="24.8739" transform="matrix(1 0 0 -1 671.596 24.1262)" fill="#1436B4"/>
<rect width="24.8739" height="24.8739" transform="matrix(1 0 0 -1 721.344 24.1262)" fill="#86C1F4"/>
<rect width="24.8739" height="24.8739" transform="matrix(1 0 0 -1 820.84 24.1262)" fill="#1436B4"/>
<rect width="24.8739" height="24.8739" transform="matrix(1 0 0 -1 870.588 24.1262)" fill="#E3D2BD"/>
<rect width="24.8739" height="24.8739" transform="matrix(1 0 0 -1 920.336 24.1262)" fill="#1436B4"/>
<rect width="24.8739" height="24.8739" transform="matrix(1 0 0 -1 970.084 24.1262)" fill="#1436B4"/>
<rect width="24.8739" height="24.8739" transform="matrix(1 0 0 -1 1069.58 24.1262)" fill="#1436B4"/>
<rect width="24.8739" height="24.8739" transform="matrix(1 0 0 -1 1144.2 24.1262)" fill="#E3D2BD"/>
<rect width="24.8739" height="24.8739" transform="matrix(1 0 0 -1 1218.82 24.1262)" fill="#A6A6A6"/>
<rect width="24.8739" height="24.8739" transform="matrix(1 0 0 -1 1268.57 24.1262)" fill="#1436B4"/>
</g>
<defs>
<clipPath id="clip0_2264_59041">
<rect width="1344" height="49" fill="white" transform="matrix(1 0 0 -1 0 49)"/>
</clipPath>
</defs>
</svg>
