<svg width="27" height="28" viewBox="0 0 27 28" fill="none" xmlns="http://www.w3.org/2000/svg">
<path d="M18.2334 11.6436H24.1523V22.29H26.583V27.498H21.1846V23.3643H19.292C18.3572 24.8005 17.0832 25.9337 15.4707 26.7627C13.8466 27.5916 11.977 28 9.85059 28C6.78916 28 4.38163 27.2406 2.62891 25.7344C0.876361 24.2165 0 22.2429 0 19.7793C9.58603e-05 17.3159 0.86473 15.2028 2.60547 13.7783C4.34651 12.3538 6.84739 11.6416 10.1191 11.6416H18.2334V11.6436ZM10.4346 15.3311C6.66047 15.3311 4.76768 16.7437 4.76758 19.5576C4.76758 20.9003 5.28149 21.9746 6.29785 22.7686C7.31443 23.5626 8.72886 23.96 10.5283 23.96C12.1522 23.9599 13.636 23.6331 14.9795 22.9678C16.3231 22.3139 17.3987 21.4147 18.1699 20.2705C18.9528 19.1379 19.3389 17.8877 19.3389 16.5449V15.3311H10.4346ZM12.5498 0C16.3005 4.52812e-05 19.1631 0.887303 21.1611 2.65039C22.5404 3.86747 23.4408 5.45729 23.8662 7.41992H18.8008C17.8774 5.25851 15.764 4.17969 12.4561 4.17969C8.70522 4.17969 6.44988 5.5932 5.66699 8.40723H0.583984C1.028 5.74503 2.31381 3.67826 4.42871 2.20703C6.54367 0.735795 9.243 0 12.5498 0Z" fill="#21279D"/>
</svg>
